<svg width="648" height="469" viewBox="0 0 648 469" fill="none" xmlns="http://www.w3.org/2000/svg">
<g clip-path="url(#clip0_205_2)">
<path d="M410.075 318.238C407.605 343.795 402.472 364.314 395.427 380.679C386.052 402.483 370.016 411.268 355.691 420.461C351.551 423.112 347.248 425.372 342.819 427.219C316.751 438.144 287.577 435.246 264.659 429.478C248.586 425.429 232.27 422.938 215.867 422.029C211.189 421.774 206.506 421.648 201.819 421.649C194.591 421.661 64.4422 424.644 32.7547 347.174C24.9312 328.064 19.5687 304.72 17.6422 276.265C12.1906 195.818 42.1531 142.983 80.8015 108.448C153.912 43.1198 254.127 45.8595 326.159 112.908C374.141 157.57 419.066 225.162 410.075 318.238Z" fill="#F2F2F2"/>
<path d="M337.44 469C508.958 469 648 450.78 648 428.304C648 405.829 508.958 387.609 337.44 387.609C165.922 387.609 26.8798 405.829 26.8798 428.304C26.8798 450.78 165.922 469 337.44 469Z" fill="#3F3D56"/>
<path d="M52.7276 278.502C60.8767 278.502 67.4828 274.029 67.4828 268.511C67.4828 262.994 60.8767 258.521 52.7276 258.521C44.5785 258.521 37.9724 262.994 37.9724 268.511C37.9724 274.029 44.5785 278.502 52.7276 278.502Z" fill="#00BFA6"/>
<path d="M52.7276 268.511C52.7276 268.511 122.815 389.642 120.97 407.125L52.7276 268.511Z" fill="#00BFA6"/>
<path d="M98.8376 276.867V347.727C84.1564 327.492 54.8736 306.657 0 289.743L98.8376 424.783V425.809C98.8376 425.809 99.0243 425.709 99.3719 425.514L99.5403 425.743C99.5403 425.743 99.6814 425.556 99.9337 425.193C111.449 418.558 208.026 358.734 98.8376 276.867Z" fill="#3F3D56"/>
<path d="M463.778 143.512C459.537 139.297 454.564 135.88 449.1 133.425V29.2882C449.1 28.6836 448.98 28.0849 448.748 27.5264C448.515 26.9678 448.174 26.4602 447.744 26.0327C447.315 25.6052 446.804 25.266 446.243 25.0347C445.681 24.8033 445.079 24.6842 444.472 24.6842H418.554C417.946 24.6842 417.345 24.8033 416.783 25.0347C416.221 25.266 415.711 25.6052 415.281 26.0327C414.852 26.4602 414.511 26.9678 414.278 27.5264C414.045 28.0849 413.926 28.6836 413.926 29.2882V131.428C404.557 134.519 396.404 140.466 390.626 148.426C384.847 156.386 381.735 165.954 381.732 175.772V399.161C381.732 404.59 383.9 409.797 387.76 413.636C391.619 417.475 396.854 419.632 402.312 419.632H457.828C463.261 419.632 468.471 417.485 472.313 413.664C476.155 409.842 478.313 404.66 478.313 399.256V178.405C478.321 171.924 477.041 165.504 474.546 159.516C472.052 153.528 468.392 148.089 463.778 143.512Z" fill="#3F3D56"/>
<path d="M478.313 208.519H381.732V335.424H478.313V208.519Z" fill="#00BFA6"/>
<path d="M451.187 31.8004H449.1V29.2882C449.1 28.6836 448.98 28.0849 448.748 27.5264C448.515 26.9678 448.174 26.4602 447.745 26.0327C447.315 25.6052 446.804 25.266 446.243 25.0347C445.681 24.8033 445.079 24.6842 444.472 24.6842H418.554C417.946 24.6842 417.345 24.8033 416.783 25.0347C416.221 25.266 415.711 25.6052 415.281 26.0327C414.852 26.4602 414.511 26.9678 414.278 27.5264C414.045 28.0849 413.926 28.6836 413.926 29.2882V31.8004H411.839V42.4746H413.926V97.0319H449.1V42.4746H451.187V31.8004Z" fill="#00BFA6"/>
<path d="M557.791 349.915L631.568 315.224L639.616 305.884L642.969 309.887L634.25 317.893L567.18 360.59L557.791 349.915Z" fill="#3F3D56"/>
<path d="M595.35 414.628C607.574 414.628 617.483 404.771 617.483 392.612C617.483 380.453 607.574 370.597 595.35 370.597C583.126 370.597 573.217 380.453 573.217 392.612C573.217 404.771 583.126 414.628 595.35 414.628Z" fill="#00BFA6"/>
<path opacity="0.1" d="M595.35 414.628C607.574 414.628 617.483 404.771 617.483 392.612C617.483 380.453 607.574 370.597 595.35 370.597C583.126 370.597 573.217 380.453 573.217 392.612C573.217 404.771 583.126 414.628 595.35 414.628Z" fill="black"/>
<path d="M536.999 429.305C549.223 429.305 559.132 419.448 559.132 407.289C559.132 395.131 549.223 385.274 536.999 385.274C524.775 385.274 514.866 395.131 514.866 407.289C514.866 419.448 524.775 429.305 536.999 429.305Z" fill="#00BFA6"/>
<path opacity="0.1" d="M536.999 429.305C549.223 429.305 559.132 419.448 559.132 407.289C559.132 395.131 549.223 385.274 536.999 385.274C524.775 385.274 514.866 395.131 514.866 407.289C514.866 419.448 524.775 429.305 536.999 429.305Z" fill="black"/>
<path d="M490.721 412.627C502.945 412.627 512.854 402.77 512.854 390.611C512.854 378.452 502.945 368.595 490.721 368.595C478.497 368.595 468.588 378.452 468.588 390.611C468.588 402.77 478.497 412.627 490.721 412.627Z" fill="#00BFA6"/>
<path d="M498.434 398.283C510.658 398.283 520.567 388.426 520.567 376.267C520.567 364.109 510.658 354.252 498.434 354.252C486.21 354.252 476.301 364.109 476.301 376.267C476.301 388.426 486.21 398.283 498.434 398.283Z" fill="#00BFA6"/>
<path d="M494.41 374.933C504.411 374.933 512.519 366.869 512.519 356.92C512.519 346.972 504.411 338.908 494.41 338.908C484.408 338.908 476.301 346.972 476.301 356.92C476.301 366.869 484.408 374.933 494.41 374.933Z" fill="#00BFA6"/>
<path d="M509.165 408.29C519.166 408.29 527.274 400.226 527.274 390.277C527.274 380.329 519.166 372.265 509.165 372.265C499.164 372.265 491.056 380.329 491.056 390.277C491.056 400.226 499.164 408.29 509.165 408.29Z" fill="#00BFA6"/>
<path opacity="0.1" d="M509.165 408.29C519.166 408.29 527.274 400.226 527.274 390.277C527.274 380.329 519.166 372.265 509.165 372.265C499.164 372.265 491.056 380.329 491.056 390.277C491.056 400.226 499.164 408.29 509.165 408.29Z" fill="black"/>
<path d="M521.908 365.593C530.798 365.593 538.005 358.425 538.005 349.582C538.005 340.739 530.798 333.57 521.908 333.57C513.018 333.57 505.812 340.739 505.812 349.582C505.812 358.425 513.018 365.593 521.908 365.593Z" fill="#00BFA6"/>
<path opacity="0.1" d="M521.908 365.593C530.798 365.593 538.005 358.425 538.005 349.582C538.005 340.739 530.798 333.57 521.908 333.57C513.018 333.57 505.812 340.739 505.812 349.582C505.812 358.425 513.018 365.593 521.908 365.593Z" fill="black"/>
<path d="M432.035 432.307C440.925 432.307 448.131 425.139 448.131 416.296C448.131 407.453 440.925 400.284 432.035 400.284C423.145 400.284 415.938 407.453 415.938 416.296C415.938 425.139 423.145 432.307 432.035 432.307Z" fill="#00BFA6"/>
<path d="M456.18 435.643C465.07 435.643 472.277 428.474 472.277 419.632C472.277 410.789 465.07 403.62 456.18 403.62C447.29 403.62 440.083 410.789 440.083 419.632C440.083 428.474 447.29 435.643 456.18 435.643Z" fill="#00BFA6"/>
<path d="M456.18 420.966C465.07 420.966 472.277 413.797 472.277 404.955C472.277 396.112 465.07 388.943 456.18 388.943C447.29 388.943 440.083 396.112 440.083 404.955C440.083 413.797 447.29 420.966 456.18 420.966Z" fill="#00BFA6"/>
<path opacity="0.1" d="M456.18 420.966C465.07 420.966 472.277 413.797 472.277 404.955C472.277 396.112 465.07 388.943 456.18 388.943C447.29 388.943 440.083 396.112 440.083 404.955C440.083 413.797 447.29 420.966 456.18 420.966Z" fill="black"/>
<path d="M432.035 408.29C440.925 408.29 448.131 401.122 448.131 392.279C448.131 383.436 440.925 376.267 432.035 376.267C423.145 376.267 415.938 383.436 415.938 392.279C415.938 401.122 423.145 408.29 432.035 408.29Z" fill="#00BFA6"/>
<path d="M469.594 384.273C478.484 384.273 485.691 377.105 485.691 368.262C485.691 359.419 478.484 352.25 469.594 352.25C460.704 352.25 453.497 359.419 453.497 368.262C453.497 377.105 460.704 384.273 469.594 384.273Z" fill="#00BFA6"/>
<path opacity="0.1" d="M469.594 384.273C478.484 384.273 485.691 377.105 485.691 368.262C485.691 359.419 478.484 352.25 469.594 352.25C460.704 352.25 453.497 359.419 453.497 368.262C453.497 377.105 460.704 384.273 469.594 384.273Z" fill="black"/>
<path d="M502.793 387.275C501.355 387.276 499.921 387.415 498.51 387.691C497.791 384.978 496.445 382.469 494.579 380.365C492.713 378.261 490.378 376.619 487.762 375.571C485.145 374.522 482.318 374.096 479.507 374.327C476.696 374.557 473.977 375.437 471.568 376.897C470.601 373.768 468.692 371.008 466.099 368.991C463.505 366.974 460.353 365.796 457.066 365.616C453.779 365.436 450.516 366.263 447.716 367.985C444.916 369.707 442.714 372.242 441.407 375.247C440.1 378.253 439.751 381.585 440.407 384.793C441.063 388.002 442.692 390.934 445.075 393.193C447.457 395.453 450.479 396.931 453.733 397.43C456.987 397.928 460.316 397.422 463.271 395.98C463.822 398.595 464.953 401.056 466.583 403.181C464.457 406.613 463.551 410.655 464.009 414.661C464.466 418.666 466.262 422.403 469.107 425.273C471.952 428.144 475.683 429.982 479.703 430.494C483.723 431.005 487.799 430.161 491.28 428.096C494.198 429.864 497.488 430.935 500.893 431.227C504.297 431.519 507.723 431.023 510.902 429.777C514.081 428.532 516.928 426.572 519.218 424.049C521.508 421.527 523.181 418.512 524.104 415.239C525.027 411.967 525.175 408.526 524.538 405.187C523.901 401.848 522.496 398.701 520.432 395.992C518.367 393.283 515.701 391.087 512.641 389.575C509.581 388.062 506.21 387.275 502.793 387.275Z" fill="#00BFA6"/>
<path d="M484.684 378.602C493.574 378.602 500.781 371.434 500.781 362.591C500.781 353.748 493.574 346.58 484.684 346.58C475.794 346.58 468.588 353.748 468.588 362.591C468.588 371.434 475.794 378.602 484.684 378.602Z" fill="#00BFA6"/>
<path d="M617.483 340.575C613.093 340.569 608.802 341.867 605.159 344.303C603.222 340.94 600.427 338.145 597.055 336.202C593.684 334.259 589.857 333.236 585.96 333.237C585.396 333.237 584.838 333.265 584.284 333.306C586.47 330.895 588.093 328.032 589.037 324.923C589.98 321.814 590.22 318.536 589.74 315.324C589.26 312.111 588.072 309.045 586.26 306.343C584.448 303.642 582.058 301.372 579.261 299.697C576.464 298.023 573.329 296.984 570.081 296.657C566.832 296.329 563.552 296.72 560.473 297.802C557.395 298.883 554.595 300.629 552.275 302.914C549.955 305.198 548.171 307.965 547.052 311.016C544.817 306.587 541.144 303.037 536.628 300.942C532.113 298.848 527.018 298.33 522.17 299.472C517.322 300.615 513.003 303.352 509.912 307.24C506.822 311.127 505.141 315.939 505.141 320.895C505.141 321.513 505.173 322.123 505.223 322.729C502.628 322.377 499.988 322.59 497.483 323.352C494.979 324.113 492.671 325.407 490.717 327.142C488.764 328.877 487.212 331.013 486.169 333.402C485.126 335.792 484.617 338.378 484.676 340.982C484.735 343.586 485.361 346.147 486.511 348.487C487.661 350.827 489.308 352.892 491.338 354.537C493.368 356.183 495.733 357.372 498.269 358.021C500.805 358.669 503.453 358.763 506.029 358.296C503.781 360.324 501.977 362.791 500.728 365.543C499.479 368.294 498.813 371.272 498.77 374.29C498.727 377.309 499.309 380.304 500.479 383.09C501.65 385.875 503.383 388.392 505.573 390.482C507.763 392.573 510.361 394.193 513.207 395.243C516.053 396.292 519.085 396.748 522.116 396.582C525.146 396.416 528.11 395.632 530.823 394.278C533.536 392.925 535.94 391.031 537.886 388.714C539.327 392.326 541.704 395.495 544.774 397.899C547.845 400.303 551.5 401.856 555.369 402.401C553.648 406.651 553.302 411.33 554.381 415.785C555.46 420.24 557.91 424.249 561.388 427.253C564.867 430.257 569.201 432.107 573.787 432.544C578.372 432.981 582.981 431.985 586.97 429.693C590.959 427.401 594.13 423.928 596.04 419.758C597.95 415.588 598.505 410.93 597.627 406.431C596.749 401.933 594.481 397.82 591.141 394.664C587.801 391.509 583.554 389.468 578.992 388.828C580.575 384.923 580.996 380.649 580.207 376.512C583.259 377.329 586.451 377.486 589.569 376.973C592.687 376.461 595.659 375.29 598.285 373.54C600.219 376.895 603.007 379.684 606.369 381.626C609.731 383.569 613.547 384.596 617.435 384.604C621.323 384.613 625.145 383.603 628.515 381.675C631.886 379.748 634.686 376.971 636.635 373.625C638.584 370.279 639.612 366.481 639.616 362.614C639.62 358.747 638.6 354.947 636.659 351.596C634.717 348.246 631.923 345.463 628.557 343.528C625.19 341.594 621.371 340.575 617.483 340.575ZM515.706 353.2C518.7 350.177 520.521 346.195 520.844 341.963C522.928 342.592 525.095 342.911 527.274 342.91C527.583 342.91 527.89 342.9 528.196 342.887C527.337 346.518 527.423 350.307 528.443 353.897C524.358 352.428 519.929 352.186 515.706 353.2Z" fill="#00BFA6"/>
<path d="M334.583 223.08L329.653 338.942L326.571 391.05C326.571 391.05 333.35 402.084 323.49 403.31C313.629 404.536 295.14 401.471 297.605 395.341C300.07 389.211 301.919 389.211 301.919 389.211L304.384 330.36L285.895 258.023L262.476 335.877L257.546 391.663C257.546 391.663 264.325 400.245 257.546 402.084C250.766 403.923 232.894 403.923 233.51 398.406C234.126 392.889 236.592 392.889 236.592 392.889L233.51 231.05L242.755 216.95L334.583 223.08Z" fill="#2F2E41"/>
<path d="M321.024 399.632L323.49 414.958C323.49 414.958 337.665 444.383 317.943 444.383C298.221 444.383 303.768 432.736 303.768 432.736L305.617 399.632H321.024Z" fill="#2F2E41"/>
<path d="M237.208 399.632L234.743 414.958C234.743 414.958 220.568 444.383 240.289 444.383C260.011 444.383 254.464 432.736 254.464 432.736L252.615 399.632H237.208Z" fill="#2F2E41"/>
<path d="M300.07 49.5932C300.07 49.5932 306.233 71.6623 307.466 71.6623C308.698 71.6623 295.756 88.827 295.756 88.827L276.651 99.2485L269.872 71.0492C269.872 71.0492 276.035 55.7235 274.802 47.7542L300.07 49.5932Z" fill="#A0616A"/>
<path d="M290.21 58.1757C302.803 58.1757 313.013 48.0206 313.013 35.4937C313.013 22.9667 302.803 12.8116 290.21 12.8116C277.616 12.8116 267.406 22.9667 267.406 35.4937C267.406 48.0206 277.616 58.1757 290.21 58.1757Z" fill="#A0616A"/>
<path d="M287.128 82.6968L305.348 66.9582L316.094 72.2753L339.513 86.988C339.513 86.988 333.35 219.402 336.432 224.306C336.432 224.306 329.653 239.632 289.593 230.437C249.534 221.241 239.057 220.015 239.057 220.015L247.685 139.095L237.208 88.2141L272.4 63.7354L283.43 82.6968H287.128Z" fill="#3F3D56"/>
<path d="M354.921 134.191C354.921 134.191 364.165 163.003 357.386 166.069C350.607 169.134 345.06 167.908 345.06 167.908L334.583 142.774L354.921 134.191Z" fill="#A0616A"/>
<path d="M226.731 129.287L221.184 155.034V207.141C221.184 207.141 229.196 240.245 235.359 231.662C241.522 223.08 241.395 220.362 241.395 220.362L233.51 208.367L237.208 159.325L247.033 135.931L226.731 129.287Z" fill="#A0616A"/>
<path d="M268.639 12.8116C268.639 12.8116 276.035 -3.12709 290.209 0.551065C304.384 4.22922 312.396 9.74648 313.013 15.2637C313.629 20.781 312.704 29.0569 312.704 29.0569C312.704 29.0569 311.164 17.7158 301.303 20.168C291.442 22.6201 276.035 20.781 276.035 20.781L273.569 42.85C273.569 42.85 270.796 38.8653 267.715 41.3174C264.633 43.7696 258.778 17.7159 268.639 12.8116Z" fill="#2F2E41"/>
<path d="M334.583 88.2141L339.513 86.988C339.513 86.988 348.758 98.6356 351.839 112.122C354.921 125.609 359.235 139.095 356.77 139.095C354.305 139.095 332.118 147.678 332.118 147.678L334.583 88.2141Z" fill="#3F3D56"/>
<path d="M251.383 86.988L237.208 88.2141C237.208 88.2141 221.184 131.739 223.033 132.965C224.882 134.191 247.069 141.547 250.15 139.708C253.232 137.869 251.383 86.988 251.383 86.988Z" fill="#3F3D56"/>
<path d="M326.413 138.459C320.486 142.344 315.593 145.258 311.851 147.358H311.848C306.389 146.987 300.907 147.141 295.478 147.815C291.642 145.686 286.467 142.631 280.101 138.459C280.041 138.419 279.98 138.379 279.92 138.335V138.332C274.081 134.336 273.936 125.874 275.836 117.222C280.668 116.688 288.374 116.921 298.726 120.6C310.986 124.956 323.819 122.493 331.255 120.253C332.477 127.887 331.732 134.971 326.413 138.459Z" fill="#00BFA6"/>
<path d="M303.257 216.904C292.031 216.904 280.101 215.208 280.101 212.064C280.101 209.077 290.649 207.485 300.572 207.254V156.151C300.572 154.935 299.983 153.377 298.821 151.52C298.284 150.673 297.703 149.856 297.079 149.071C296.525 148.772 295.937 148.451 295.315 148.107C290.528 145.45 285.348 142.297 279.917 138.738C279.851 138.694 279.788 138.652 279.724 138.606L279.584 138.506C274.55 134.944 273.179 127.761 275.508 117.151C278.272 104.542 285.44 91.3638 285.511 91.2321L285.654 90.9719L285.931 91.0818C286.064 91.1347 299.517 96.3173 320.626 91.0679L320.878 91.0053L321.002 91.2321C321.013 91.2513 322.078 93.1991 323.518 96.2573C326.444 102.462 330.22 111.652 331.587 120.2C333.053 129.368 331.375 135.605 326.597 138.738C321.473 142.097 316.567 145.095 312.016 147.649L311.937 147.692C311.297 148.053 310.691 148.389 310.119 148.7C309.903 149 309.693 149.315 309.493 149.639C309.226 150.071 308.97 150.528 308.731 151C307.329 153.811 306.596 156.906 306.589 160.045L306.286 207.265C316.044 207.519 326.413 209.117 326.413 212.064C326.413 215.208 314.482 216.904 303.257 216.904ZM280.256 138.16L280.287 138.181C285.703 141.731 290.87 144.875 295.641 147.524C296.284 147.88 296.891 148.211 297.46 148.516L297.521 148.549L297.564 148.604C298.219 149.424 298.829 150.28 299.39 151.167C300.62 153.132 301.243 154.808 301.243 156.151V207.908L300.915 207.915C288.473 208.167 280.772 210.265 280.772 212.064C280.772 214.037 290.006 216.236 303.257 216.236C316.507 216.236 325.741 214.037 325.741 212.064C325.741 210.292 318.171 208.205 305.941 207.924L305.611 207.917L305.918 160.041C305.926 156.799 306.683 153.603 308.132 150.7C308.379 150.212 308.645 149.737 308.921 149.29C309.143 148.93 309.378 148.579 309.62 148.247L309.664 148.186L309.731 148.15C310.343 147.817 310.994 147.457 311.682 147.068L311.763 147.024C316.279 144.487 321.145 141.512 326.228 138.18C330.765 135.205 332.345 129.19 330.924 120.305C329.569 111.834 325.818 102.706 322.911 96.5407C321.761 94.0994 320.853 92.3727 320.535 91.7784C301.031 96.5662 288.017 92.5204 285.965 91.8048C284.961 93.69 278.696 105.74 276.164 117.293C273.876 127.714 275.204 134.7 280.11 138.057L280.256 138.16Z" fill="#F2F2F2"/>
<path d="M291.176 114.091C292.102 114.091 292.854 113.344 292.854 112.422C292.854 111.5 292.102 110.753 291.176 110.753C290.249 110.753 289.498 111.5 289.498 112.422C289.498 113.344 290.249 114.091 291.176 114.091Z" fill="#00BFA6"/>
<path d="M286.477 129.446C287.404 129.446 288.155 128.699 288.155 127.777C288.155 126.855 287.404 126.108 286.477 126.108C285.551 126.108 284.8 126.855 284.8 127.777C284.8 128.699 285.551 129.446 286.477 129.446Z" fill="white"/>
<path d="M295.203 117.429C295.759 117.429 296.21 116.981 296.21 116.427C296.21 115.874 295.759 115.426 295.203 115.426C294.647 115.426 294.196 115.874 294.196 116.427C294.196 116.981 294.647 117.429 295.203 117.429Z" fill="#00BFA6"/>
<path d="M299.23 136.456C299.786 136.456 300.237 136.008 300.237 135.455C300.237 134.901 299.786 134.453 299.23 134.453C298.674 134.453 298.223 134.901 298.223 135.455C298.223 136.008 298.674 136.456 299.23 136.456Z" fill="white"/>
<path d="M292.183 137.457C292.739 137.457 293.189 137.009 293.189 136.456C293.189 135.903 292.739 135.455 292.183 135.455C291.627 135.455 291.176 135.903 291.176 136.456C291.176 137.009 291.627 137.457 292.183 137.457Z" fill="white"/>
<path d="M312.654 104.077C313.21 104.077 313.66 103.628 313.66 103.075C313.66 102.522 313.21 102.074 312.654 102.074C312.097 102.074 311.647 102.522 311.647 103.075C311.647 103.628 312.097 104.077 312.654 104.077Z" fill="#00BFA6"/>
<path d="M351.839 148.291C351.839 148.291 359.235 161.777 357.386 166.069C355.537 170.36 340.13 172.812 338.281 172.812C336.432 172.812 314.245 167.908 314.245 167.908C314.245 167.908 280.349 151.969 290.21 144C300.07 136.03 318.559 155.034 318.559 155.034H333.35L341.362 149.517L351.839 148.291Z" fill="#A0616A"/>
</g>
<defs>
<clipPath id="clip0_205_2">
<rect width="648" height="469" fill="white"/>
</clipPath>
</defs>
</svg>
