<svg width="450" height="450" viewBox="0 0 450 450" fill="none" xmlns="http://www.w3.org/2000/svg">
<g clip-path="url(#clip0_65_6)">
<path d="M397.88 257.238C395.409 282.795 390.277 303.314 383.231 319.679C373.856 341.483 357.82 350.268 343.495 359.461C339.356 362.112 335.052 364.372 330.623 366.219C304.556 377.144 275.381 374.246 252.464 368.478C236.39 364.429 220.074 361.938 203.672 361.029C198.994 360.774 194.311 360.648 189.623 360.649C182.395 360.661 52.2468 363.644 20.5593 286.174C12.7359 267.064 7.3734 243.72 5.44684 215.265C-0.00472224 134.818 29.9578 81.9825 68.6062 47.4477C141.717 -17.8802 241.931 -15.1405 313.964 51.9082C361.945 96.5697 406.87 164.162 397.88 257.238Z" fill="#F2F2F2"/>
<path d="M140.625 233.947C140.625 297.893 109.145 320.22 70.3125 320.22C31.48 320.22 0 297.893 0 233.947C0 170.002 70.3125 88.6536 70.3125 88.6536C70.3125 88.6536 140.625 170.002 140.625 233.947Z" fill="#00BFA6"/>
<path d="M67.7512 310.438L68.4712 256.922L98.4403 190.714L68.5842 248.526L68.9076 224.464L89.5621 176.563L68.9934 218.096L69.5756 174.817L91.6931 136.682L69.667 168.011L70.0307 88.6538L67.7446 193.709L67.9326 189.375L45.4457 147.811L67.5721 197.694L65.4768 246.03L65.4145 244.746L39.4912 201.006L65.3357 249.279L65.0737 255.324L65.0268 255.414L65.0484 255.911L59.7328 378.54H66.8348L67.687 315.2L93.4682 267.045L67.7512 310.438Z" fill="#3F3D56"/>
<path d="M450 237.91C450 301.855 418.52 324.182 379.688 324.182C340.855 324.182 309.375 301.855 309.375 237.91C309.375 173.964 379.688 92.6159 379.688 92.6159C379.688 92.6159 450 173.964 450 237.91Z" fill="#00BFA6"/>
<path d="M377.126 314.401L377.846 260.884L407.815 194.677L377.959 252.489L378.283 228.426L398.937 180.526L378.368 222.058L378.951 178.779L401.068 140.644L379.042 171.974L379.406 92.6161L377.12 197.671L377.308 193.338L354.821 151.773L376.947 201.657L374.852 249.992L374.79 248.709L348.866 204.968L374.711 253.241L374.449 259.286L374.402 259.377L374.423 259.873L369.108 382.503H376.21L377.062 319.162L402.843 271.008L377.126 314.401Z" fill="#3F3D56"/>
<path d="M303.75 183.601C303.75 253.515 269.332 277.926 226.875 277.926C184.418 277.926 150 253.515 150 183.601C150 113.688 226.875 24.7469 226.875 24.7469C226.875 24.7469 303.75 113.688 303.75 183.601Z" fill="#00BFA6"/>
<path d="M224.075 267.232L224.862 208.72L257.628 136.333L224.985 199.542L225.339 173.233L247.921 120.862L225.433 166.27L226.069 118.952L250.251 77.2581L226.169 111.512L226.567 24.7472L224.068 139.607L224.273 134.869L199.687 89.4253L223.879 143.965L221.588 196.811L221.52 195.408L193.177 147.586L221.434 200.364L221.147 206.973L221.096 207.072L221.12 207.615L215.308 341.69H223.073L224.004 272.438L252.192 219.789L224.075 267.232Z" fill="#3F3D56"/>
<path d="M390 388.3C390 403.306 308.572 450 208.125 450C107.678 450 26.25 403.306 26.25 388.3C26.25 373.295 101.116 339.62 201.562 339.62C302.009 339.62 390 373.295 390 388.3Z" fill="#3F3D56"/>
<path opacity="0.1" d="M390 388.3C390 403.306 308.572 450 208.125 450C107.678 450 26.25 403.306 26.25 388.3C26.25 373.295 101.116 339.62 201.562 339.62C302.009 339.62 390 373.295 390 388.3Z" fill="black"/>
<path d="M390 388.3C390 403.306 308.572 415.471 208.125 415.471C107.678 415.471 26.25 403.306 26.25 388.3C26.25 373.295 101.116 339.62 201.562 339.62C302.009 339.62 390 373.295 390 388.3Z" fill="#3F3D56"/>
<path d="M269.263 313.061C269.263 334.588 280.447 352.006 294.267 352.006Z" fill="#3F3D56"/>
<path d="M294.267 352.007C294.267 330.238 306.747 312.624 322.169 312.624Z" fill="#00BFA6"/>
<path d="M278.323 315.013C278.323 335.46 285.454 352.006 294.267 352.006Z" fill="#00BFA6"/>
<path d="M294.267 352.006C294.267 324.191 308.692 301.684 326.518 301.684Z" fill="#3F3D56"/>
<path d="M289.007 352.281C289.007 352.281 292.553 352.149 293.621 351.23C294.69 350.311 299.076 349.214 299.341 350.688C299.606 352.162 304.67 358.018 300.667 358.057C296.663 358.096 291.365 357.304 290.298 356.519C289.231 355.734 289.007 352.281 289.007 352.281Z" fill="#A8A8A8"/>
<path opacity="0.2" d="M300.738 357.544C296.735 357.583 291.436 356.791 290.369 356.006C289.557 355.409 289.234 353.265 289.125 352.275C289.05 352.279 289.007 352.281 289.007 352.281C289.007 352.281 289.231 355.734 290.298 356.519C291.365 357.304 296.663 358.096 300.666 358.057C301.822 358.045 302.221 357.549 302.199 356.813C302.039 357.258 301.598 357.535 300.738 357.544Z" fill="black"/>
<path opacity="0.1" d="M210.469 397.357C244.641 397.357 272.344 392.035 272.344 385.47C272.344 378.905 244.641 373.583 210.469 373.583C176.296 373.583 148.594 378.905 148.594 385.47C148.594 392.035 176.296 397.357 210.469 397.357Z" fill="black"/>
<path d="M237.656 358.866H231.562V375.847H237.656V358.866Z" fill="#FFB9B9"/>
<path d="M238.125 129.615H214.688V180.56H238.125V129.615Z" fill="#FF6584"/>
<path d="M255.338 226.031L256.149 233.868L234.787 241.704L232.083 227.337L255.338 226.031Z" fill="#FFB9B9"/>
<path d="M223.701 150.603C223.701 150.603 223.16 156.481 222.079 156.481C220.997 156.481 217.211 158.766 217.211 158.766L216.13 164.97L223.701 170.521L236.139 168.889L239.655 162.358L236.139 158.113C236.139 158.113 233.165 150.277 234.247 148.644C235.328 147.011 223.701 150.603 223.701 150.603Z" fill="#FFB9B9"/>
<path opacity="0.1" d="M223.701 150.603C223.701 150.603 223.16 156.481 222.079 156.481C220.997 156.481 217.211 158.766 217.211 158.766L216.13 164.97L223.701 170.521L236.139 168.889L239.655 162.358L236.139 158.113C236.139 158.113 233.165 150.277 234.247 148.644C235.328 147.011 223.701 150.603 223.701 150.603Z" fill="black"/>
<path d="M189.901 354.031C189.901 354.031 187.467 373.622 184.493 374.928C181.519 376.234 195.85 378.52 195.85 378.52L196.931 371.337C196.931 371.337 197.202 358.275 198.283 356.316C199.365 354.357 189.901 354.031 189.901 354.031Z" fill="#FFB9B9"/>
<path d="M217.482 240.072C217.482 240.072 256.69 231.582 256.96 229.95C257.231 228.317 265.072 242.358 260.205 269.786C255.338 297.215 243.17 361.867 243.17 361.867C243.17 361.867 230.731 366.439 231.002 362.847C231.272 359.255 235.328 296.888 235.328 296.888L232.624 270.439L228.027 273.704L208.829 319.418L199.095 358.928C199.095 358.928 186.656 361.541 188.549 355.99C190.442 350.439 196.661 307.337 196.661 307.337L213.696 246.603C213.696 246.603 213.155 240.072 217.482 240.072Z" fill="#2F2E41"/>
<path d="M227.351 155.011C233.624 155.011 238.708 148.871 238.708 141.297C238.708 133.723 233.624 127.583 227.351 127.583C221.079 127.583 215.995 133.723 215.995 141.297C215.995 148.871 221.079 155.011 227.351 155.011Z" fill="#FFB9B9"/>
<path d="M239.114 158.44C239.114 158.44 233.706 164.644 220.997 163.011C208.288 161.379 224.512 197.95 224.512 197.95L229.65 234.848C229.65 234.848 252.363 231.582 253.175 225.378C253.986 219.174 239.114 158.44 239.114 158.44Z" fill="#F2F2F2"/>
<path d="M233.706 193.378C233.706 193.378 227.216 189.46 224.783 178.685C222.349 167.909 220.186 156.807 218.834 157.134C217.692 157.409 207.105 162.341 203.674 165.638C203.041 166.246 202.652 166.799 202.61 167.256C202.339 170.195 212.344 199.582 212.344 199.582C212.344 199.582 220.186 220.807 216.941 227.664C213.696 234.521 213.426 243.337 219.375 242.684C225.323 242.031 245.063 240.725 242.359 222.439C242.359 222.439 247.496 235.174 261.827 226.031C261.827 226.031 270.48 224.399 270.21 220.807C269.939 217.215 256.419 186.195 256.419 186.195C256.419 186.195 254.256 172.481 258.312 167.256L249.119 154.195C249.119 154.195 246.955 150.277 244.792 152.236C242.629 154.195 237.762 157.46 236.951 157.787C236.139 158.113 235.606 156.613 235.606 156.613C233.733 161.345 232.981 166.611 233.435 171.828C234.247 180.317 233.706 193.378 233.706 193.378Z" fill="#2F2E41"/>
<path d="M190.712 371.01C190.712 371.01 190.108 368.724 186.625 371.01C186.625 371.01 187.738 363.826 183.952 363.826C180.167 363.826 178.815 372.316 178.815 372.316C178.815 372.316 177.733 377.867 170.432 380.153C163.131 382.438 168.81 390.275 173.947 390.275C179.085 390.275 185.845 385.377 185.845 385.377C185.845 385.377 199.906 385.704 200.176 382.438C200.447 379.173 198.824 369.377 197.743 369.377C196.661 369.377 194.498 373.949 194.498 373.949L190.712 371.01Z" fill="#2F2E41"/>
<path d="M236.68 365.264C236.68 365.264 232.894 360.366 230.731 368.529C228.568 376.692 226.946 379.957 228.298 381.263C229.65 382.57 230.731 381.916 230.19 384.529C229.65 387.141 231.813 392.692 236.68 392.692C241.547 392.692 242.899 388.447 242.629 385.508C242.358 382.57 240.195 378.978 240.195 378.978L238.032 369.835L236.68 365.264Z" fill="#2F2E41"/>
<path d="M258.042 135.583L243.711 141.46C243.711 141.46 230.731 150.603 236.41 152.562C242.088 154.522 246.955 146.685 246.955 146.685L259.394 142.766L258.042 135.583Z" fill="#FFB9B9"/>
<path d="M219.624 120.09C217.923 121.498 216.568 123.426 215.28 125.371C212.664 129.324 210.1 134.045 210.744 139.045C210.989 140.944 211.688 142.712 212.082 144.574C212.613 147.088 212.578 149.718 212.539 152.312C212.571 153.414 212.458 154.515 212.204 155.574C211.825 156.606 211.38 157.601 210.872 158.548C209.57 161.478 209.538 164.958 209.537 168.283C209.474 169.402 209.6 170.525 209.907 171.584C210.263 172.583 210.925 173.367 211.474 174.23C212.384 175.687 212.991 177.387 213.244 179.186C213.498 180.985 213.39 182.832 212.931 184.571C213.636 184.574 214.328 184.335 214.925 183.88C215.522 183.426 216 182.775 216.301 182.004C216.395 182.833 216.336 183.676 216.128 184.474C215.92 185.272 215.569 186.004 215.1 186.619C218.195 185.508 221.513 183.635 222.643 179.982C222.974 178.741 223.161 177.45 223.198 176.147C223.799 166.984 224.143 157.478 221.421 148.894C220.55 146.148 219.366 143.489 219.074 140.57C218.782 137.65 219.674 134.276 221.895 133.071C221.947 133.818 222.222 134.517 222.669 135.038C223.163 135.481 224.077 135.203 224.086 134.46L225.159 136.264C225.571 136.02 225.922 135.65 226.178 135.19L226.914 136.278L228.478 134.904L229.836 136.673C230.359 136.313 230.776 135.765 231.029 135.105C231.321 135.633 231.682 136.212 232.205 136.269C233.344 136.393 233.58 134.21 234.575 133.53C234.942 133.333 235.356 133.303 235.741 133.444C236.125 133.585 236.455 133.887 236.671 134.297C237.081 135.14 237.231 136.131 237.093 137.095C236.681 141.585 233.508 145.681 234.449 150.054C234.978 152.512 236.759 154.484 236.894 157.019C237.001 159.045 236.015 160.961 236.03 162.991C236.048 165.37 237.409 167.391 238.738 169.147C241.102 172.273 243.592 175.253 246.205 178.086L245.398 176.381C245.775 176.345 246.153 176.408 246.508 176.565C246.863 176.723 247.186 176.971 247.454 177.294C247.686 176.313 247.301 175.292 246.938 174.371C244.764 168.858 243.009 162.989 242.747 156.891C242.382 148.415 244.906 139.808 243.307 131.543C242.387 126.916 240.243 122.777 237.199 119.754C235.72 118.283 234.599 117.402 232.683 117.24C230.542 117.016 228.388 117.036 226.25 117.301C223.887 117.573 221.614 118.529 219.624 120.09Z" fill="#FF6584"/>
<path d="M246.955 154.522C246.955 154.522 249.93 154.848 251.282 154.522C252.634 154.195 254.527 152.562 254.527 152.562L264.802 143.42L255.879 145.052C255.879 145.052 257.501 130.032 256.96 129.705C256.419 129.379 283.189 123.175 282.648 133.297C282.107 143.42 266.965 163.338 258.312 167.256L252.634 168.236L246.955 154.522Z" fill="#2F2E41"/>
<path d="M276.094 270.284H148.594V306.511H276.094V270.284Z" fill="white"/>
<path d="M259.453 278.492H164.766V297.738H259.453V278.492Z" fill="#3F3D56"/>
<path d="M186.77 287.692C186.732 287.199 184.924 286.979 182.444 287.103C183.881 284.659 184.714 282.709 184.392 282.402C184.088 282.112 182.845 283.365 181.331 285.4C181.188 282.67 180.856 280.756 180.469 280.756C180.046 280.756 179.69 283.033 179.572 286.163C177.466 284.334 175.765 283.26 175.503 283.66C175.253 284.042 176.392 285.656 178.201 287.586C175.813 288.014 174.13 288.618 174.168 289.103C174.205 289.596 176.013 289.816 178.493 289.693C177.056 292.136 176.224 294.086 176.546 294.394C176.849 294.684 178.093 293.431 179.606 291.396C179.749 294.126 180.082 296.039 180.469 296.039C180.891 296.039 181.248 293.762 181.365 290.633C183.471 292.462 185.172 293.535 185.434 293.135C185.684 292.753 184.546 291.139 182.736 289.209C185.124 288.781 186.807 288.177 186.77 287.692Z" fill="white"/>
<path d="M202.707 287.692C202.669 287.199 200.862 286.979 198.382 287.103C199.819 284.659 200.651 282.709 200.329 282.402C200.025 282.112 198.782 283.365 197.269 285.4C197.126 282.67 196.793 280.756 196.406 280.756C195.984 280.756 195.627 283.033 195.51 286.163C193.404 284.334 191.703 283.26 191.441 283.66C191.191 284.042 192.329 285.656 194.139 287.586C191.751 288.014 190.068 288.618 190.105 289.103C190.143 289.596 191.951 289.816 194.431 289.693C192.994 292.136 192.161 294.086 192.483 294.394C192.787 294.684 194.03 293.431 195.544 291.396C195.687 294.126 196.019 296.039 196.406 296.039C196.829 296.039 197.185 293.762 197.303 290.633C199.409 292.462 201.11 293.535 201.372 293.135C201.622 292.753 200.483 291.139 198.674 289.209C201.062 288.781 202.745 288.177 202.707 287.692Z" fill="white"/>
<path d="M218.645 287.692C218.607 287.199 216.799 286.979 214.319 287.103C215.756 284.659 216.589 282.709 216.267 282.402C215.963 282.112 214.72 283.365 213.206 285.4C213.063 282.67 212.731 280.756 212.344 280.756C211.921 280.756 211.564 283.033 211.447 286.163C209.341 284.334 207.64 283.26 207.378 283.66C207.128 284.042 208.267 285.656 210.076 287.586C207.688 288.014 206.005 288.618 206.043 289.103C206.08 289.596 207.888 289.816 210.368 289.693C208.931 292.136 208.099 294.086 208.421 294.394C208.724 294.684 209.968 293.431 211.481 291.396C211.624 294.126 211.957 296.039 212.344 296.039C212.766 296.039 213.123 293.762 213.24 290.633C215.346 292.462 217.047 293.535 217.309 293.135C217.559 292.753 216.421 291.139 214.611 289.209C216.999 288.781 218.682 288.177 218.645 287.692Z" fill="white"/>
<path d="M234.582 287.692C234.544 287.199 232.737 286.979 230.257 287.103C231.694 284.659 232.526 282.709 232.204 282.402C231.9 282.112 230.657 283.365 229.144 285.4C229.001 282.67 228.668 280.756 228.281 280.756C227.859 280.756 227.502 283.033 227.385 286.163C225.279 284.334 223.578 283.26 223.316 283.66C223.066 284.042 224.204 285.656 226.014 287.586C223.626 288.014 221.943 288.618 221.98 289.103C222.018 289.596 223.826 289.816 226.306 289.693C224.869 292.136 224.036 294.086 224.358 294.394C224.662 294.684 225.905 293.431 227.419 291.396C227.562 294.126 227.894 296.039 228.281 296.039C228.703 296.039 229.06 293.762 229.178 290.633C231.284 292.462 232.985 293.535 233.247 293.135C233.497 292.753 232.358 291.139 230.549 289.209C232.937 288.781 234.62 288.177 234.582 287.692Z" fill="white"/>
<path d="M250.52 287.692C250.482 287.199 248.674 286.979 246.194 287.103C247.631 284.659 248.464 282.709 248.142 282.402C247.838 282.112 246.595 283.365 245.081 285.4C244.938 282.67 244.606 280.756 244.219 280.756C243.796 280.756 243.439 283.033 243.322 286.163C241.216 284.334 239.515 283.26 239.253 283.66C239.003 284.042 240.142 285.656 241.951 287.586C239.563 288.014 237.88 288.618 237.918 289.103C237.955 289.596 239.763 289.816 242.243 289.693C240.806 292.136 239.974 294.086 240.296 294.394C240.599 294.684 241.843 293.431 243.356 291.396C243.499 294.126 243.832 296.039 244.219 296.039C244.641 296.039 244.998 293.762 245.115 290.633C247.221 292.462 248.922 293.535 249.184 293.135C249.434 292.753 248.296 291.139 246.486 289.209C248.874 288.781 250.557 288.177 250.52 287.692Z" fill="white"/>
<path d="M200.987 254.766C200.987 254.766 199.635 276.317 206.125 277.296C212.614 278.276 206.666 252.807 206.666 252.807L200.987 254.766Z" fill="#FFB9B9"/>
<path d="M204.502 166.603L202.61 167.256C202.61 167.256 194.768 243.011 199.906 257.705C199.906 257.705 205.314 254.113 208.018 254.766L212.344 193.052L204.502 166.603Z" fill="#2F2E41"/>
</g>
<defs>
<clipPath id="clip0_65_6">
<rect width="450" height="450" fill="white"/>
</clipPath>
</defs>
</svg>
